<svg width="131" height="53" viewBox="0 0 131 53" fill="none" xmlns="http://www.w3.org/2000/svg">
<rect y="0.939941" width="4" height="50" fill="white"/>
<path d="M14.1378 15V1.90909H22.9588V4.19105H16.9055V7.31037H22.505V9.59233H16.9055V12.718H22.9844V15H14.1378ZM27.1878 15.1854C26.5614 15.1854 26.0032 15.0767 25.5131 14.8594C25.0231 14.6378 24.6353 14.3118 24.3498 13.8814C24.0685 13.4467 23.9279 12.9055 23.9279 12.2578C23.9279 11.7124 24.028 11.2543 24.2283 10.8835C24.4286 10.5128 24.7013 10.2145 25.0465 9.98864C25.3917 9.76278 25.7837 9.59233 26.2226 9.47727C26.6658 9.36222 27.1303 9.28125 27.6161 9.23438C28.1871 9.17472 28.6474 9.11932 28.9968 9.06818C29.3462 9.01278 29.5998 8.93182 29.7575 8.82528C29.9151 8.71875 29.994 8.56108 29.994 8.35227V8.31392C29.994 7.90909 29.8661 7.59588 29.6104 7.37429C29.359 7.1527 29.0011 7.0419 28.5366 7.0419C28.0465 7.0419 27.6566 7.15057 27.3668 7.3679C27.0771 7.58097 26.8853 7.84943 26.7915 8.1733L24.2731 7.96875C24.4009 7.37216 24.6523 6.85653 25.0273 6.42188C25.4023 5.98295 25.886 5.64631 26.4783 5.41193C27.0749 5.1733 27.7653 5.05398 28.5494 5.05398C29.0948 5.05398 29.6168 5.1179 30.1154 5.24574C30.6182 5.37358 31.0636 5.57173 31.4513 5.8402C31.8434 6.10866 32.1523 6.45384 32.3782 6.87571C32.604 7.29332 32.717 7.79403 32.717 8.37784V15H30.1346V13.6385H30.0579C29.9002 13.9453 29.6893 14.2159 29.4251 14.4503C29.1609 14.6804 28.8434 14.8615 28.4726 14.9936C28.1019 15.1214 27.6736 15.1854 27.1878 15.1854ZM27.9677 13.3061C28.3682 13.3061 28.7219 13.2273 29.0288 13.0696C29.3356 12.9077 29.5763 12.6903 29.7511 12.4176C29.9258 12.1449 30.0131 11.8359 30.0131 11.4908V10.4489C29.9279 10.5043 29.8107 10.5554 29.6616 10.6023C29.5167 10.6449 29.3526 10.6854 29.1694 10.7237C28.9861 10.7578 28.8029 10.7898 28.6197 10.8196C28.4364 10.8452 28.2702 10.8686 28.1211 10.8899C27.8015 10.9368 27.5224 11.0114 27.2837 11.1136C27.0451 11.2159 26.8597 11.3544 26.7276 11.5291C26.5955 11.6996 26.5295 11.9126 26.5295 12.1683C26.5295 12.5391 26.6637 12.8224 26.9322 13.0185C27.2049 13.2102 27.5501 13.3061 27.9677 13.3061ZM34.1095 15V5.18182H36.7495V6.89489H36.8517C37.0307 6.28551 37.3311 5.82528 37.753 5.5142C38.1749 5.19886 38.6607 5.04119 39.2104 5.04119C39.3468 5.04119 39.4938 5.04972 39.6514 5.06676C39.8091 5.08381 39.9476 5.10724 40.0669 5.13707V7.55327C39.9391 7.51491 39.7622 7.48082 39.5364 7.45099C39.3105 7.42116 39.1039 7.40625 38.9164 7.40625C38.5158 7.40625 38.1578 7.49361 37.8425 7.66832C37.5314 7.83878 37.2843 8.07741 37.101 8.38423C36.922 8.69105 36.8325 9.04474 36.8325 9.44531V15H34.1095ZM46.4693 5.18182V7.22727H40.5566V5.18182H46.4693ZM41.8989 2.82955H44.622V11.983C44.622 12.2344 44.6603 12.4304 44.737 12.571C44.8137 12.7074 44.9203 12.8033 45.0566 12.8587C45.1972 12.9141 45.3592 12.9418 45.5424 12.9418C45.6703 12.9418 45.7981 12.9311 45.9259 12.9098C46.0538 12.8842 46.1518 12.8651 46.22 12.8523L46.6482 14.8786C46.5119 14.9212 46.3201 14.9702 46.073 15.0256C45.8258 15.0852 45.5254 15.1214 45.1717 15.1342C44.5154 15.1598 43.9401 15.0724 43.4458 14.8722C42.9558 14.6719 42.5744 14.3608 42.3016 13.9389C42.0289 13.517 41.8947 12.9844 41.8989 12.3409V2.82955ZM50.457 9.32386V15H47.734V1.90909H50.3803V6.91406H50.4954C50.7169 6.33452 51.0749 5.88068 51.5692 5.55256C52.0635 5.22017 52.6836 5.05398 53.4293 5.05398C54.1111 5.05398 54.7056 5.20312 55.2127 5.50142C55.724 5.79545 56.1204 6.21946 56.4016 6.77344C56.6871 7.32315 56.8277 7.98153 56.8235 8.74858V15H54.1005V9.23438C54.1047 8.62926 53.9513 8.15838 53.6402 7.82173C53.3334 7.48509 52.903 7.31676 52.349 7.31676C51.9783 7.31676 51.6502 7.3956 51.3647 7.55327C51.0834 7.71094 50.8618 7.94105 50.6999 8.24361C50.5422 8.5419 50.4613 8.90199 50.457 9.32386ZM16.9055 19.9091V33H14.1378V19.9091H16.9055ZM21.1346 27.3239V33H18.4116V23.1818H21.0067V24.9141H21.1218C21.3391 24.343 21.7035 23.8913 22.2148 23.5589C22.7262 23.2223 23.3462 23.054 24.0749 23.054C24.7567 23.054 25.3512 23.2031 25.8583 23.5014C26.3654 23.7997 26.7596 24.2259 27.0408 24.7798C27.3221 25.3295 27.4627 25.9858 27.4627 26.7486V33H24.7397V27.2344C24.744 26.6335 24.5905 26.1648 24.2795 25.8281C23.9684 25.4872 23.5401 25.3168 22.9947 25.3168C22.6282 25.3168 22.3043 25.3956 22.0231 25.5533C21.7461 25.7109 21.5288 25.9411 21.3711 26.2436C21.2177 26.5419 21.1388 26.902 21.1346 27.3239ZM34.1687 23.1818V25.2273H28.109V23.1818H34.1687ZM29.4961 33V22.4723C29.4961 21.7607 29.6346 21.1705 29.9116 20.7017C30.1928 20.233 30.5763 19.8814 31.0621 19.647C31.5479 19.4126 32.0998 19.2955 32.7177 19.2955C33.1353 19.2955 33.5167 19.3274 33.8618 19.3913C34.2113 19.4553 34.4712 19.5128 34.6417 19.5639L34.1559 21.6094C34.0493 21.5753 33.9172 21.5433 33.7596 21.5135C33.6062 21.4837 33.4485 21.4688 33.2866 21.4688C32.886 21.4688 32.6069 21.5625 32.4492 21.75C32.2915 21.9332 32.2127 22.1911 32.2127 22.5234V33H29.4961ZM39.1967 33.1918C38.2038 33.1918 37.3451 32.9808 36.6207 32.5589C35.9005 32.1328 35.3444 31.5405 34.9524 30.782C34.5603 30.0192 34.3643 29.1349 34.3643 28.1293C34.3643 27.1151 34.5603 26.2287 34.9524 25.4702C35.3444 24.7074 35.9005 24.1151 36.6207 23.6932C37.3451 23.267 38.2038 23.054 39.1967 23.054C40.1896 23.054 41.0461 23.267 41.7663 23.6932C42.4907 24.1151 43.049 24.7074 43.441 25.4702C43.8331 26.2287 44.0291 27.1151 44.0291 28.1293C44.0291 29.1349 43.8331 30.0192 43.441 30.782C43.049 31.5405 42.4907 32.1328 41.7663 32.5589C41.0461 32.9808 40.1896 33.1918 39.1967 33.1918ZM39.2095 31.0824C39.6612 31.0824 40.0383 30.9545 40.3409 30.6989C40.6434 30.4389 40.8714 30.0852 41.0248 29.6378C41.1825 29.1903 41.2613 28.6811 41.2613 28.1101C41.2613 27.5391 41.1825 27.0298 41.0248 26.5824C40.8714 26.1349 40.6434 25.7812 40.3409 25.5213C40.0383 25.2614 39.6612 25.1314 39.2095 25.1314C38.7535 25.1314 38.37 25.2614 38.0589 25.5213C37.7521 25.7812 37.5199 26.1349 37.3622 26.5824C37.2088 27.0298 37.1321 27.5391 37.1321 28.1101C37.1321 28.6811 37.2088 29.1903 37.3622 29.6378C37.5199 30.0852 37.7521 30.4389 38.0589 30.6989C38.37 30.9545 38.7535 31.0824 39.2095 31.0824ZM45.0797 33V23.1818H47.7196V24.8949H47.8219C48.0009 24.2855 48.3013 23.8253 48.7232 23.5142C49.145 23.1989 49.6308 23.0412 50.1805 23.0412C50.3169 23.0412 50.4639 23.0497 50.6216 23.0668C50.7793 23.0838 50.9178 23.1072 51.0371 23.1371V25.5533C50.9092 25.5149 50.7324 25.4808 50.5065 25.451C50.2807 25.4212 50.074 25.4062 49.8865 25.4062C49.4859 25.4062 49.128 25.4936 48.8126 25.6683C48.5016 25.8388 48.2544 26.0774 48.0712 26.3842C47.8922 26.6911 47.8027 27.0447 47.8027 27.4453V33H45.0797ZM51.7249 33V23.1818H54.3201V24.9141H54.4352C54.6397 24.3388 54.9806 23.8849 55.4579 23.5526C55.9352 23.2202 56.5062 23.054 57.171 23.054C57.8442 23.054 58.4174 23.2223 58.8904 23.5589C59.3634 23.8913 59.6788 24.343 59.8364 24.9141H59.9387C60.139 24.3516 60.5012 23.902 61.0254 23.5653C61.5538 23.2244 62.1781 23.054 62.8982 23.054C63.8144 23.054 64.558 23.3459 65.1291 23.9297C65.7043 24.5092 65.992 25.3317 65.992 26.397V33H63.2754V26.9339C63.2754 26.3885 63.1305 25.9794 62.8407 25.7067C62.5509 25.4339 62.1887 25.2976 61.7541 25.2976C61.2597 25.2976 60.8741 25.4553 60.5971 25.7706C60.3201 26.0817 60.1816 26.4929 60.1816 27.0043V33H57.5417V26.8764C57.5417 26.3949 57.4032 26.0114 57.1262 25.7259C56.8535 25.4403 56.4934 25.2976 56.046 25.2976C55.7434 25.2976 55.4707 25.3743 55.2278 25.5277C54.9891 25.6768 54.7995 25.8878 54.6589 26.1605C54.5183 26.429 54.4479 26.7443 54.4479 27.1065V33H51.7249ZM70.2226 33.1854C69.5962 33.1854 69.038 33.0767 68.5479 32.8594C68.0578 32.6378 67.6701 32.3118 67.3845 31.8814C67.1033 31.4467 66.9627 30.9055 66.9627 30.2578C66.9627 29.7124 67.0628 29.2543 67.2631 28.8835C67.4634 28.5128 67.7361 28.2145 68.0813 27.9886C68.4264 27.7628 68.8185 27.5923 69.2574 27.4773C69.7006 27.3622 70.1651 27.2812 70.6509 27.2344C71.2219 27.1747 71.6821 27.1193 72.0316 27.0682C72.381 27.0128 72.6345 26.9318 72.7922 26.8253C72.9499 26.7187 73.0287 26.5611 73.0287 26.3523V26.3139C73.0287 25.9091 72.9009 25.5959 72.6452 25.3743C72.3938 25.1527 72.0358 25.0419 71.5713 25.0419C71.0813 25.0419 70.6914 25.1506 70.4016 25.3679C70.1118 25.581 69.9201 25.8494 69.8263 26.1733L67.3078 25.9688C67.4357 25.3722 67.6871 24.8565 68.0621 24.4219C68.4371 23.983 68.9208 23.6463 69.5131 23.4119C70.1097 23.1733 70.8 23.054 71.5841 23.054C72.1296 23.054 72.6516 23.1179 73.1502 23.2457C73.653 23.3736 74.0983 23.5717 74.4861 23.8402C74.8782 24.1087 75.1871 24.4538 75.413 24.8757C75.6388 25.2933 75.7517 25.794 75.7517 26.3778V33H73.1693V31.6385H73.0926C72.935 31.9453 72.724 32.2159 72.4598 32.4503C72.1956 32.6804 71.8782 32.8615 71.5074 32.9936C71.1367 33.1214 70.7084 33.1854 70.2226 33.1854ZM71.0024 31.3061C71.403 31.3061 71.7567 31.2273 72.0635 31.0696C72.3703 30.9077 72.6111 30.6903 72.7858 30.4176C72.9605 30.1449 73.0479 29.8359 73.0479 29.4908V28.4489C72.9627 28.5043 72.8455 28.5554 72.6963 28.6023C72.5514 28.6449 72.3874 28.6854 72.2041 28.7237C72.0209 28.7578 71.8377 28.7898 71.6544 28.8196C71.4712 28.8452 71.305 28.8686 71.1559 28.8899C70.8363 28.9368 70.5571 29.0114 70.3185 29.1136C70.0799 29.2159 69.8945 29.3544 69.7624 29.5291C69.6303 29.6996 69.5642 29.9126 69.5642 30.1683C69.5642 30.5391 69.6985 30.8224 69.9669 31.0185C70.2397 31.2102 70.5848 31.3061 71.0024 31.3061ZM82.3666 23.1818V25.2273H76.454V23.1818H82.3666ZM77.7963 20.8295H80.5193V29.983C80.5193 30.2344 80.5577 30.4304 80.6344 30.571C80.7111 30.7074 80.8176 30.8033 80.954 30.8587C81.0946 30.9141 81.2565 30.9418 81.4398 30.9418C81.5676 30.9418 81.6954 30.9311 81.8233 30.9098C81.9511 30.8842 82.0491 30.8651 82.1173 30.8523L82.5456 32.8786C82.4092 32.9212 82.2175 32.9702 81.9703 33.0256C81.7231 33.0852 81.4227 33.1214 81.069 33.1342C80.4128 33.1598 79.8375 33.0724 79.3432 32.8722C78.8531 32.6719 78.4717 32.3608 78.199 31.9389C77.9263 31.517 77.792 30.9844 77.7963 30.3409V20.8295ZM83.4204 33V23.1818H86.1434V33H83.4204ZM84.7883 21.9162C84.3835 21.9162 84.0362 21.782 83.7464 21.5135C83.4609 21.2408 83.3181 20.9148 83.3181 20.5355C83.3181 20.1605 83.4609 19.8388 83.7464 19.5703C84.0362 19.2976 84.3835 19.1612 84.7883 19.1612C85.1931 19.1612 85.5383 19.2976 85.8238 19.5703C86.1136 19.8388 86.2585 20.1605 86.2585 20.5355C86.2585 20.9148 86.1136 21.2408 85.8238 21.5135C85.5383 21.782 85.1931 21.9162 84.7883 21.9162ZM92.0408 33.1918C91.0479 33.1918 90.1892 32.9808 89.4648 32.5589C88.7446 32.1328 88.1885 31.5405 87.7965 30.782C87.4044 30.0192 87.2084 29.1349 87.2084 28.1293C87.2084 27.1151 87.4044 26.2287 87.7965 25.4702C88.1885 24.7074 88.7446 24.1151 89.4648 23.6932C90.1892 23.267 91.0479 23.054 92.0408 23.054C93.0337 23.054 93.8902 23.267 94.6104 23.6932C95.3348 24.1151 95.893 24.7074 96.2851 25.4702C96.6771 26.2287 96.8732 27.1151 96.8732 28.1293C96.8732 29.1349 96.6771 30.0192 96.2851 30.782C95.893 31.5405 95.3348 32.1328 94.6104 32.5589C93.8902 32.9808 93.0337 33.1918 92.0408 33.1918ZM92.0536 31.0824C92.5053 31.0824 92.8824 30.9545 93.1849 30.6989C93.4875 30.4389 93.7155 30.0852 93.8689 29.6378C94.0266 29.1903 94.1054 28.6811 94.1054 28.1101C94.1054 27.5391 94.0266 27.0298 93.8689 26.5824C93.7155 26.1349 93.4875 25.7812 93.1849 25.5213C92.8824 25.2614 92.5053 25.1314 92.0536 25.1314C91.5976 25.1314 91.2141 25.2614 90.903 25.5213C90.5962 25.7812 90.3639 26.1349 90.2063 26.5824C90.0528 27.0298 89.9761 27.5391 89.9761 28.1101C89.9761 28.6811 90.0528 29.1903 90.2063 29.6378C90.3639 30.0852 90.5962 30.4389 90.903 30.6989C91.2141 30.9545 91.5976 31.0824 92.0536 31.0824ZM100.647 27.3239V33H97.9238V23.1818H100.519V24.9141H100.634C100.851 24.343 101.216 23.8913 101.727 23.5589C102.238 23.2223 102.858 23.054 103.587 23.054C104.269 23.054 104.863 23.2031 105.37 23.5014C105.878 23.7997 106.272 24.2259 106.553 24.7798C106.834 25.3295 106.975 25.9858 106.975 26.7486V33H104.252V27.2344C104.256 26.6335 104.103 26.1648 103.792 25.8281C103.481 25.4872 103.052 25.3168 102.507 25.3168C102.14 25.3168 101.817 25.3956 101.535 25.5533C101.258 25.7109 101.041 25.9411 100.883 26.2436C100.73 26.5419 100.651 26.902 100.647 27.3239ZM25.6882 42.4922H22.8885C22.8374 42.13 22.733 41.8082 22.5753 41.527C22.4176 41.2415 22.2152 40.9986 21.968 40.7983C21.7209 40.598 21.4354 40.4446 21.1115 40.3381C20.7919 40.2315 20.4446 40.1783 20.0696 40.1783C19.392 40.1783 18.8018 40.3466 18.299 40.6832C17.7962 41.0156 17.4063 41.5014 17.1293 42.1406C16.8523 42.7756 16.7138 43.5469 16.7138 44.4545C16.7138 45.3878 16.8523 46.1719 17.1293 46.8068C17.4105 47.4418 17.8026 47.9212 18.3054 48.245C18.8082 48.5689 19.3899 48.7308 20.0504 48.7308C20.4212 48.7308 20.7642 48.6818 21.0795 48.5838C21.3991 48.4858 21.6825 48.343 21.9297 48.1555C22.1768 47.9638 22.3814 47.7315 22.5433 47.4588C22.7095 47.1861 22.8246 46.875 22.8885 46.5256L25.6882 46.5384C25.6158 47.1392 25.4347 47.7188 25.1449 48.277C24.8594 48.831 24.4737 49.3274 23.9879 49.7663C23.5064 50.201 22.9311 50.5462 22.2621 50.8018C21.5973 51.0533 20.8452 51.179 20.0057 51.179C18.8381 51.179 17.794 50.9148 16.8736 50.3864C15.9574 49.858 15.233 49.093 14.7003 48.0916C14.1719 47.0902 13.9077 45.8778 13.9077 44.4545C13.9077 43.027 14.1761 41.8125 14.7131 40.8111C15.25 39.8097 15.9787 39.0469 16.8991 38.5227C17.8196 37.9943 18.8551 37.7301 20.0057 37.7301C20.7642 37.7301 21.4673 37.8366 22.1151 38.0497C22.767 38.2628 23.3445 38.5739 23.8473 38.983C24.3501 39.3878 24.7592 39.8842 25.0746 40.4723C25.3942 41.0604 25.5987 41.7337 25.6882 42.4922ZM31.3762 51.1918C30.3663 51.1918 29.497 50.9872 28.7683 50.5781C28.0438 50.1648 27.4856 49.581 27.0936 48.8267C26.7015 48.0682 26.5055 47.1712 26.5055 46.1357C26.5055 45.1257 26.7015 44.2393 27.0936 43.4766C27.4856 42.7138 28.0375 42.1193 28.7491 41.6932C29.465 41.267 30.3045 41.054 31.2676 41.054C31.9153 41.054 32.5183 41.1584 33.0765 41.3672C33.639 41.5717 34.1291 41.8807 34.5467 42.294C34.9686 42.7074 35.2967 43.2273 35.5311 43.8537C35.7654 44.4759 35.8826 45.2045 35.8826 46.0398V46.7876H27.5921V45.1001H33.3194C33.3194 44.7081 33.2342 44.3608 33.0637 44.0582C32.8933 43.7557 32.6568 43.5192 32.3542 43.3487C32.0559 43.174 31.7086 43.0866 31.3123 43.0866C30.899 43.0866 30.5325 43.1825 30.2129 43.3743C29.8975 43.5618 29.6504 43.8153 29.4714 44.1349C29.2924 44.4503 29.2008 44.8018 29.1965 45.1896V46.794C29.1965 47.2798 29.286 47.6996 29.465 48.0533C29.6483 48.407 29.9061 48.6797 30.2385 48.8714C30.5708 49.0632 30.965 49.1591 31.421 49.1591C31.7235 49.1591 32.0005 49.1165 32.2519 49.0312C32.5034 48.946 32.7186 48.8182 32.8975 48.6477C33.0765 48.4773 33.2129 48.2685 33.3066 48.0213L35.8251 48.1875C35.6973 48.7926 35.4352 49.321 35.0389 49.7727C34.6468 50.2202 34.1397 50.5696 33.5176 50.821C32.8997 51.0682 32.1859 51.1918 31.3762 51.1918ZM39.6626 45.3239V51H36.9396V41.1818H39.5348V42.9141H39.6498C39.8672 42.343 40.2315 41.8913 40.7429 41.5589C41.2542 41.2223 41.8743 41.054 42.603 41.054C43.2848 41.054 43.8792 41.2031 44.3863 41.5014C44.8935 41.7997 45.2876 42.2259 45.5689 42.7798C45.8501 43.3295 45.9908 43.9858 45.9908 44.7486V51H43.2677V45.2344C43.272 44.6335 43.1186 44.1648 42.8075 43.8281C42.4964 43.4872 42.0682 43.3168 41.5227 43.3168C41.1562 43.3168 40.8324 43.3956 40.5511 43.5533C40.2741 43.7109 40.0568 43.9411 39.8991 44.2436C39.7457 44.5419 39.6669 44.902 39.6626 45.3239ZM52.6392 41.1818V43.2273H46.7265V41.1818H52.6392ZM48.0689 38.8295H50.7919V47.983C50.7919 48.2344 50.8302 48.4304 50.9069 48.571C50.9836 48.7074 51.0902 48.8033 51.2265 48.8587C51.3672 48.9141 51.5291 48.9418 51.7123 48.9418C51.8402 48.9418 51.968 48.9311 52.0959 48.9098C52.2237 48.8842 52.3217 48.8651 52.3899 48.8523L52.8182 50.8786C52.6818 50.9212 52.49 50.9702 52.2429 51.0256C51.9957 51.0852 51.6953 51.1214 51.3416 51.1342C50.6853 51.1598 50.1101 51.0724 49.6157 50.8722C49.1257 50.6719 48.7443 50.3608 48.4716 49.9389C48.1988 49.517 48.0646 48.9844 48.0689 48.3409V38.8295ZM58.0619 51.1918C57.052 51.1918 56.1827 50.9872 55.454 50.5781C54.7296 50.1648 54.1713 49.581 53.7793 48.8267C53.3872 48.0682 53.1912 47.1712 53.1912 46.1357C53.1912 45.1257 53.3872 44.2393 53.7793 43.4766C54.1713 42.7138 54.7232 42.1193 55.4348 41.6932C56.1507 41.267 56.9902 41.054 57.9533 41.054C58.601 41.054 59.204 41.1584 59.7622 41.3672C60.3247 41.5717 60.8148 41.8807 61.2324 42.294C61.6543 42.7074 61.9824 43.2273 62.2168 43.8537C62.4511 44.4759 62.5683 45.2045 62.5683 46.0398V46.7876H54.2778V45.1001H60.0051C60.0051 44.7081 59.9199 44.3608 59.7494 44.0582C59.579 43.7557 59.3425 43.5192 59.0399 43.3487C58.7416 43.174 58.3943 43.0866 57.998 43.0866C57.5847 43.0866 57.2182 43.1825 56.8986 43.3743C56.5832 43.5618 56.3361 43.8153 56.1571 44.1349C55.9781 44.4503 55.8865 44.8018 55.8823 45.1896V46.794C55.8823 47.2798 55.9717 47.6996 56.1507 48.0533C56.334 48.407 56.5918 48.6797 56.9242 48.8714C57.2565 49.0632 57.6507 49.1591 58.1067 49.1591C58.4092 49.1591 58.6862 49.1165 58.9376 49.0312C59.1891 48.946 59.4043 48.8182 59.5832 48.6477C59.7622 48.4773 59.8986 48.2685 59.9923 48.0213L62.5108 48.1875C62.383 48.7926 62.1209 49.321 61.7246 49.7727C61.3325 50.2202 60.8254 50.5696 60.2033 50.821C59.5854 51.0682 58.8716 51.1918 58.0619 51.1918ZM63.6253 51V41.1818H66.2652V42.8949H66.3675C66.5465 42.2855 66.8469 41.8253 67.2688 41.5142C67.6907 41.1989 68.1765 41.0412 68.7262 41.0412C68.8625 41.0412 69.0096 41.0497 69.1672 41.0668C69.3249 41.0838 69.4634 41.1072 69.5827 41.1371V43.5533C69.4549 43.5149 69.278 43.4808 69.0522 43.451C68.8263 43.4212 68.6196 43.4062 68.4321 43.4062C68.0316 43.4062 67.6736 43.4936 67.3583 43.6683C67.0472 43.8388 66.8 44.0774 66.6168 44.3842C66.4378 44.6911 66.3483 45.0447 66.3483 45.4453V51H63.6253Z" fill="white"/>
</svg>
